<svg version="1" xmlns="http://www.w3.org/2000/svg" width="1102.667" height="1102.667" viewBox="0 0 827.000000 827.000000"><path d="M.1 413.2L0 827h827V-.5l-5.6 10C802.6 43 771.6 97.8 762 114c-3.7 6.3-8.6 15.1-11 19.5-3.9 7.2-20.5 36.7-67.5 120-8.4 14.8-25.1 44.5-37.2 66-12.1 21.4-32.8 58.1-46 81.5-20.4 36.2-70.5 125-158.8 281.5-26.5 47.1-27.6 48.8-28.5 47.8-.5-.4-15.2-26.2-32.8-57.3-17.5-31.1-57.3-101.3-88.2-156-93.8-165.8-153.1-270.7-185.5-328-16.9-30-33.7-59.7-37.3-66-3.5-6.3-13.1-23.2-21.2-37.5S29.6 53.4 25 46c-4.6-7.4-12.1-20.9-16.6-30L.2-.5.1 413.2z"/></svg>